<?xml version="1.0" encoding="UTF-8"?>
<svg version="1.1" xmlns="http://www.w3.org/2000/svg" width="805" height="721">
<path d="M0 0 C265.65 0 531.3 0 805 0 C805 237.93 805 475.86 805 721 C539.35 721 273.7 721 0 721 C0 483.07 0 245.14 0 0 Z " fill="#FEFEFE" transform="translate(0,0)"/>
<path d="M0 0 C1.2281543 0.00604248 2.45630859 0.01208496 3.72167969 0.01831055 C23.83687599 0.23546623 43.37329259 2.85829018 62.5 9.25 C63.51835937 9.5696875 64.53671875 9.889375 65.5859375 10.21875 C72.48836243 12.41900885 78.97935685 15.1035577 85.5 18.25 C86.69238281 18.80300781 87.88476562 19.35601562 89.11328125 19.92578125 C108.50436085 29.09282767 129.01415316 42.35121115 142.91870117 58.94287109 C144.36829918 60.6217634 145.67038831 61.99286723 147.5 63.25 C150.5025922 63.37023025 152.45605187 63.22252231 155.3125 62.625 C156.82816691 62.38009041 158.34516809 62.14332071 159.86328125 61.9140625 C160.63365723 61.79450195 161.4040332 61.67494141 162.19775391 61.55175781 C176.92333693 59.62166019 193.76728655 61.01764375 207.6328125 66.203125 C210.59962032 67.28637363 213.57257872 68.06812555 216.625 68.875 C245.06461971 77.60466744 269.19245584 101.13940971 283.6875 126.375 C284.03458008 126.97505859 284.38166016 127.57511719 284.73925781 128.19335938 C286.54927814 131.37801202 287.99238253 134.50591061 289.25 137.9375 C290.52457675 140.57609748 291.20569579 141.13523987 293.984375 142.21875 C296.0572518 142.71280354 298.14213906 143.1582032 300.234375 143.5625 C320.83689566 147.89987277 342.99079544 162.48390489 358.5 176.25 C359.2748877 176.93449219 359.2748877 176.93449219 360.06542969 177.6328125 C375.76686299 191.57307613 388.10222747 207.01533067 398.5 225.25 C399.15226563 226.34441406 399.80453125 227.43882812 400.4765625 228.56640625 C402.49881741 232.11567965 404.03940667 235.7915962 405.4375 239.625 C405.69128418 240.31779053 405.94506836 241.01058105 406.20654297 241.72436523 C418.87232427 276.88555511 423.99783433 318.05788052 410.41015625 353.80761719 C409.38334908 356.56303 408.61759266 359.34361493 407.875 362.1875 C403.98149211 375.06839371 396.77752334 392.18747726 386.99609375 401.71484375 C385.37040316 403.26424603 385.37040316 403.26424603 384.12109375 405.55859375 C375.3578182 420.1077428 361.20076535 432.58106751 347.5 442.25 C346.23542969 443.18972656 346.23542969 443.18972656 344.9453125 444.1484375 C339.76924412 447.93540126 334.47334672 450.94571517 328.69140625 453.71484375 C326.49267796 454.77249396 324.31357051 455.87159492 322.15234375 457.00390625 C299.44797727 468.8552272 274.27612131 473.69223328 248.8125 473.5625 C248.06676727 473.56067719 247.32103455 473.55885437 246.55270386 473.55697632 C234.9617052 473.50937755 223.81790096 472.86942686 212.5 470.25 C211.7486377 470.08902832 210.99727539 469.92805664 210.22314453 469.76220703 C185.6368823 464.43117204 163.06739165 452.96721681 143.5 437.25 C142.5203125 436.47914063 141.540625 435.70828125 140.53125 434.9140625 C131.01281234 427.24643216 122.8625441 419.00709115 115.5 409.25 C114.71753906 408.22261719 113.93507813 407.19523437 113.12890625 406.13671875 C103.08566365 392.68252631 95.04556393 378.11163044 89.5 362.25 C89.24234863 361.52731934 88.98469727 360.80463867 88.71923828 360.06005859 C85.64828129 351.33646503 83.1320399 342.63391531 81.625 333.5 C81.50487549 332.79327148 81.38475098 332.08654297 81.26098633 331.35839844 C80.18661815 324.02311439 80.40106999 316.64410194 80.5 309.25 C79.93845718 309.25222061 79.37691437 309.25444122 78.7983551 309.25672913 C72.97519565 309.27878306 67.15204799 309.29390705 61.32885742 309.30493164 C59.15307127 309.30997308 56.97728853 309.31680607 54.80151367 309.32543945 C51.68146933 309.33751338 48.56146962 309.34323005 45.44140625 309.34765625 C44.46224747 309.35281754 43.48308868 309.35797882 42.47425842 309.36329651 C41.57340012 309.36337204 40.67254181 309.36344757 39.74438477 309.36352539 C38.54858543 309.36685631 38.54858543 309.36685631 37.32862854 309.37025452 C35.5 309.25 35.5 309.25 34.5 308.25 C34.15477156 305.27973657 34.1503857 303.76132075 35.86036205 301.26043224 C36.50281022 300.61609895 37.14525839 299.97176565 37.80717468 299.3079071 C38.54039444 298.56058823 39.2736142 297.81326935 40.02905273 297.04330444 C41.25156738 295.83597153 41.25156738 295.83597153 42.4987793 294.60424805 C43.77420341 293.31568153 43.77420341 293.31568153 45.07539368 292.00108337 C47.40938587 289.64884682 49.75409259 287.30842758 52.1051023 284.97327018 C54.56330318 282.52772748 57.00928187 280.07000972 59.45722961 277.61421204 C63.57019659 273.49214827 67.69359433 269.38073947 71.82299805 265.27514648 C76.59713354 260.52822232 81.35298863 255.76355309 86.09974736 250.98926514 C90.17553055 246.89079276 94.26097631 242.80214411 98.35465747 238.72154838 C100.7996973 236.2843041 103.24123237 233.84380671 105.67410851 231.3944149 C108.38661508 228.6647847 111.11924993 225.95588252 113.85424805 223.2487793 C114.65913666 222.43376953 115.46402527 221.61875977 116.29330444 220.77905273 C117.41428276 219.6792231 117.41428276 219.6792231 118.5579071 218.55717468 C119.2022404 217.91472651 119.8465737 217.27227835 120.51043224 216.61036205 C123.08839172 214.84768861 124.43389776 214.74299321 127.5 215.25 C129.48956776 216.61036205 129.48956776 216.61036205 131.4420929 218.55717468 C132.18941177 219.29039444 132.93673065 220.0236142 133.70669556 220.77905273 C134.91402847 222.00156738 134.91402847 222.00156738 136.14575195 223.2487793 C137.0047963 224.09906204 137.86384064 224.94934479 138.74891663 225.82539368 C141.10115318 228.15938587 143.44157242 230.50409259 145.77672982 232.8551023 C148.22227252 235.31330318 150.67999028 237.75928187 153.13578796 240.20722961 C157.25785173 244.32019659 161.36926053 248.44359433 165.47485352 252.57299805 C170.22177768 257.34713354 174.98644691 262.10298863 179.76073486 266.84974736 C183.85920724 270.92553055 187.94785589 275.01097631 192.02845162 279.10465747 C194.4656959 281.5496973 196.90619329 283.99123237 199.3555851 286.42410851 C202.0852153 289.13661508 204.79411748 291.86924993 207.5012207 294.60424805 C208.31623047 295.40913666 209.13124023 296.21402527 209.97094727 297.04330444 C210.70416702 297.79062332 211.43738678 298.5379422 212.19282532 299.3079071 C212.83527349 299.9522404 213.47772165 300.5965737 214.13963795 301.26043224 C215.8496143 303.76132075 215.84522844 305.27973657 215.5 308.25 C214.5 309.25 214.5 309.25 212.59544373 309.37025452 C211.34634972 309.3669236 211.34634972 309.3669236 210.07202148 309.36352539 C209.13112167 309.36344986 208.19022186 309.36337433 207.22080994 309.36329651 C206.19790359 309.35813522 205.17499725 309.35297394 204.12109375 309.34765625 C202.558395 309.34553383 202.558395 309.34553383 200.96412659 309.34336853 C197.62188906 309.3377508 194.27971743 309.3251953 190.9375 309.3125 C188.67773534 309.30748728 186.41796963 309.30292398 184.15820312 309.29882812 C178.60544609 309.28777561 173.05272775 309.27102024 167.5 309.25 C168.42355949 312.5962235 169.35918647 315.9389608 170.296875 319.28125 C170.55581543 320.22000977 170.81475586 321.15876953 171.08154297 322.12597656 C177.49771805 344.89048631 192.50891515 363.50910551 212.98828125 375.28515625 C232.9026531 386.24867393 255.30763743 389.41177915 277.5 384.25 C278.35980469 384.07855469 279.21960938 383.90710938 280.10546875 383.73046875 C300.32643852 379.10085233 319.32257221 365.21224069 330.7421875 348.109375 C346.23314661 322.91074817 349.69653305 297.29019247 342.84375 268.4921875 C336.49080984 247.39135053 319.45941922 229.10306387 300.8984375 218.0703125 C282.05212865 207.97562293 258.40120316 203.58187711 237.5 209.25 C236.18 209.25 234.86 209.25 233.5 209.25 C233.5721875 208.62996094 233.644375 208.00992188 233.71875 207.37109375 C236.00436555 185.56251205 234.02748876 167.41595214 220.5625 149.6875 C210.75365864 138.31686254 196.37252119 130.55218479 181.5 128.25 C171.32067165 127.64124202 161.00687789 127.18001189 151.5 131.25 C150.38238281 131.66378906 149.26476562 132.07757813 148.11328125 132.50390625 C140.98965702 135.2821954 135.58346296 138.27900523 130.171875 143.7109375 C128.5 145.25 128.5 145.25 126.5 145.25 C126.17 146.24 125.84 147.23 125.5 148.25 C122.5 147.25 122.5 147.25 121.32421875 145.09765625 C120.76154297 143.71900391 120.76154297 143.71900391 120.1875 142.3125 C108.80715848 116.15118236 87.05969382 95.51124443 61.5 83.25 C60.50742187 82.75113281 59.51484375 82.25226563 58.4921875 81.73828125 C31.28553989 68.97109555 -4.82695048 66.76645122 -33.21826172 76.87451172 C-35.31809977 77.65155862 -37.40892407 78.4497503 -39.5 79.25 C-40.56605469 79.63027344 -41.63210938 80.01054687 -42.73046875 80.40234375 C-55.56756616 85.27039284 -67.1046018 93.4020084 -77.5 102.25 C-78.09296875 102.72179687 -78.6859375 103.19359375 -79.296875 103.6796875 C-81.77402033 105.65404591 -83.7642864 107.580358 -85.75 110.0625 C-86.3275 110.784375 -86.905 111.50625 -87.5 112.25 C-88.16 112.25 -88.82 112.25 -89.5 112.25 C-89.72429687 112.77078125 -89.94859375 113.2915625 -90.1796875 113.828125 C-91.61510455 116.46113852 -93.3504826 118.75120114 -95.1809082 121.12060547 C-105.28658003 134.27250094 -111.51709486 148.50352884 -116.5 164.25 C-116.86351562 165.38824219 -117.22703125 166.52648437 -117.6015625 167.69921875 C-118.82350416 172.52854469 -119.25400501 177.33505432 -119.7109375 182.28515625 C-120.09218278 185.98586476 -120.39934396 188.09901594 -122.5 191.25 C-123.593125 190.6725 -124.68625 190.095 -125.8125 189.5 C-137.93224171 183.47207926 -150.97817323 179.87619169 -164.5 179.25 C-165.35980469 179.20875 -166.21960938 179.1675 -167.10546875 179.125 C-191.74910234 178.5425803 -215.36051939 186.87408112 -234.5 202.25 C-235.15355469 202.76304687 -235.80710937 203.27609375 -236.48046875 203.8046875 C-251.09618609 215.74246987 -260.90078019 232.46765018 -266.5 250.25 C-266.89445312 251.36503906 -267.28890625 252.48007812 -267.6953125 253.62890625 C-275.57045367 278.27314172 -270.03794827 305.97243632 -258.66699219 328.52392578 C-255.94745014 333.70077746 -252.76222897 338.39965049 -249.1640625 343.015625 C-247.65865528 345.0369699 -246.53910602 346.96186755 -245.5 349.25 C-244.84 349.25 -244.18 349.25 -243.5 349.25 C-238.73255814 353.55232558 -238.73255814 353.55232558 -237.5 357.25 C-236.1928823 357.96670463 -234.85057511 358.61899359 -233.5 359.25 C-231.76881867 360.40072641 -230.03884257 361.55348465 -228.32373047 362.72802734 C-204.75279482 378.86918673 -180.72933416 381.72800325 -152.74243164 381.60302734 C-150.42102472 381.6038602 -148.09961795 381.60608271 -145.7782135 381.60957336 C-140.82115001 381.61448432 -135.86420568 381.61050478 -130.90715218 381.59955978 C-123.07033095 381.58308897 -115.23365639 381.591713 -107.39683533 381.60440063 C-96.41665295 381.62058145 -85.43649343 381.62926793 -74.45629883 381.62890625 C-73.76230751 381.62888881 -73.0683162 381.62887137 -72.35329484 381.6288534 C-64.59146337 381.6284001 -56.82963834 381.62504781 -49.06781006 381.61798096 C-48.0171047 381.61703238 -48.0171047 381.61703238 -46.94517296 381.61606465 C-45.89522861 381.6151158 -45.89522861 381.6151158 -44.82407326 381.61414778 C-43.41209376 381.61287793 -42.00011427 381.61161252 -40.58813477 381.61035156 C-39.54161837 381.60940928 -39.54161837 381.60940928 -38.47396023 381.60844795 C-26.84772671 381.59850066 -15.22160644 381.6080674 -3.59539503 381.63253558 C4.19871436 381.64778804 11.9923682 381.64026363 19.78644931 381.61582541 C24.61917915 381.60578504 29.45169773 381.61640965 34.28440285 381.63294029 C36.52903476 381.63640292 38.77369848 381.63124851 41.01828766 381.61697197 C44.07519665 381.59872591 47.13050026 381.61095397 50.18736267 381.63095093 C51.08101483 381.61823131 51.97466699 381.60551169 52.89539951 381.59240663 C58.89412946 381.67735607 58.89412946 381.67735607 61.98658085 384.600214 C63.65045117 387.51341903 65.09631416 390.42381753 66.4375 393.5 C75.48823633 413.63788834 89.28370497 434.57495379 105.9140625 449.40234375 C106.43742187 450.01207031 106.96078125 450.62179687 107.5 451.25 C107.09912109 453.36547852 107.09912109 453.36547852 106.5 455.25 C69.92141431 455.27291266 33.34282989 455.29052175 -3.2357615 455.30106533 C-7.55886705 455.30231596 -11.88197259 455.30361029 -16.20507812 455.30493164 C-17.06569345 455.30519395 -17.92630877 455.30545626 -18.81300335 455.30572652 C-32.72921236 455.31007218 -46.64541722 455.31795365 -60.56162377 455.3271528 C-74.85182793 455.33652005 -89.14202992 455.34206211 -103.43223703 455.34408849 C-112.24274709 455.34545734 -121.05324542 455.34977332 -129.86375187 455.35791647 C-135.91385267 455.36322184 -141.96394743 455.3647957 -148.01405038 455.36350138 C-151.49925139 455.36286391 -154.98443196 455.36380811 -158.46962929 455.36920547 C-162.26139528 455.37421359 -166.05311191 455.37297221 -169.84487915 455.37025452 C-170.92858343 455.37316736 -172.0122877 455.3760802 -173.12883151 455.37908131 C-185.46278803 455.35534453 -197.21386559 454.47041934 -209.1875 451.4375 C-210.22455078 451.18935547 -211.26160156 450.94121094 -212.33007812 450.68554688 C-219.24587242 448.98366387 -225.85136993 446.7910165 -232.5 444.25 C-233.74007812 443.80398438 -234.98015625 443.35796875 -236.2578125 442.8984375 C-250.55440108 437.49160702 -263.44550574 429.62571776 -275.5 420.25 C-276.39589844 419.55777344 -277.29179687 418.86554688 -278.21484375 418.15234375 C-282.56946702 414.73131078 -286.68776406 411.280078 -290.5 407.25 C-291.61375 406.13625 -291.61375 406.13625 -292.75 405 C-293.6575 404.0925 -294.565 403.185 -295.5 402.25 C-296.11359375 401.69441406 -296.7271875 401.13882812 -297.359375 400.56640625 C-317.09353124 382.0926432 -330.9344869 354.96564079 -338.5 329.25 C-338.89638672 327.91195312 -338.89638672 327.91195312 -339.30078125 326.546875 C-340.14052995 323.46349003 -340.84053825 320.37712506 -341.5 317.25 C-341.63825195 316.61288086 -341.77650391 315.97576172 -341.91894531 315.31933594 C-348.91136115 281.74626936 -346.79237005 239.81671244 -330.5 209.25 C-329.88615626 207.98977376 -329.278066 206.7267287 -328.67578125 205.4609375 C-322.54621136 192.77461007 -315.40737579 181.20071589 -306.5 170.25 C-305.82839844 169.3940625 -305.15679687 168.538125 -304.46484375 167.65625 C-295.1320598 155.79401993 -295.1320598 155.79401993 -290.5 154.25 C-290.5 153.59 -290.5 152.93 -290.5 152.25 C-283.7386559 145.94638712 -276.04367312 140.56993873 -268.5 135.25 C-267.65824219 134.62609375 -266.81648438 134.0021875 -265.94921875 133.359375 C-243.15108112 117.12683706 -209.46307757 103.47166039 -181 105.4921875 C-176.85581664 105.73509785 -173.47197335 105.68695964 -169.5 104.25 C-166.04120613 100.57376907 -164.13803415 95.85424847 -162.01171875 91.3359375 C-149.14280406 64.1114465 -120.31718549 40.70403624 -94.5 26.25 C-93.79649414 25.85184082 -93.09298828 25.45368164 -92.36816406 25.04345703 C-81.39516535 18.88542694 -70.47964238 14.06922711 -58.5 10.25 C-56.85355103 9.68930454 -55.20758413 9.12718737 -53.5625 8.5625 C-52.20862379 8.12410199 -50.85446228 7.68658396 -49.5 7.25 C-48.76394531 6.99476562 -48.02789062 6.73953125 -47.26953125 6.4765625 C-41.08628796 4.4390174 -34.9643534 3.5219617 -28.50390625 2.77734375 C-25.4172352 2.41397314 -22.41548718 1.82965988 -19.37109375 1.20703125 C-12.90366735 0.0100168 -6.56183654 -0.05201345 0 0 Z " fill="#DF0629" transform="translate(373.5,103.75)"/>
<path d="M0 0 C2 3 2 3 2 6 C22.295 6.495 22.295 6.495 43 7 C43 7.33 43 7.66 43 8 C36.75204325 8.02527124 30.50409959 8.04283344 24.25610352 8.05493164 C22.12881986 8.05997298 20.00153969 8.06680591 17.87426758 8.07543945 C14.82372174 8.08751379 11.77322155 8.09323014 8.72265625 8.09765625 C7.28672874 8.10539818 7.28672874 8.10539818 5.8217926 8.11329651 C4.94095505 8.11337204 4.06011749 8.11344757 3.15258789 8.11352539 C2.37315323 8.115746 1.59371857 8.11796661 0.79066467 8.12025452 C-1 8 -1 8 -2 7 C-2.1875 4.5625 -2.1875 4.5625 -2 2 C-1.34 1.34 -0.68 0.68 0 0 Z " fill="#DC0434" transform="translate(410,405)"/>
<path d="M0 0 C1.299375 0.00451172 2.59875 0.00902344 3.9375 0.01367188 C7.12504825 0.0253908 10.31249955 0.04179781 13.5 0.0625 C13.5 0.3925 13.5 0.7225 13.5 1.0625 C12.86908447 1.08755615 12.23816895 1.1126123 11.58813477 1.13842773 C8.74603175 1.25404137 5.90428917 1.37692316 3.0625 1.5 C1.57266602 1.55897461 1.57266602 1.55897461 0.05273438 1.61914062 C-1.36362305 1.68198242 -1.36362305 1.68198242 -2.80859375 1.74609375 C-3.68314209 1.78275146 -4.55769043 1.81940918 -5.45874023 1.85717773 C-7.4927402 1.84431066 -7.4927402 1.84431066 -8.5 3.0625 C-11.36267567 3.13575168 -14.200719 3.15488205 -17.0625 3.125 C-17.86880859 3.12048828 -18.67511719 3.11597656 -19.50585938 3.11132812 C-21.50393756 3.09950518 -23.50197783 3.08156914 -25.5 3.0625 C-18.44047261 -1.64385159 -8.15871765 -0.05389397 0 0 Z " fill="#DD546C" transform="translate(374.5,103.9375)"/>
<path d="M0 0 C3.07503729 3.07503729 3.43877265 7.19650042 4.41210938 11.32617188 C5.41871545 15.38066885 6.82328502 18.46441093 9 22 C8.6875 24.8125 8.6875 24.8125 8 27 C3.15308924 19.72963386 0 8.73974491 0 0 Z " fill="#D52747" transform="translate(33,421)"/>
<path d="M0 0 C1.32 0.33 2.64 0.66 4 1 C2.19047409 2.83635578 0.37759362 4.66916208 -1.4375 6.5 C-1.95376953 7.02464844 -2.47003906 7.54929687 -3.00195312 8.08984375 C-4.31576787 9.41224552 -5.65593505 10.70835568 -7 12 C-7.33 12 -7.66 12 -8 12 C-8 10.35 -8 8.7 -8 7 C-7.01 7 -6.02 7 -5 7 C-5 6.34 -5 5.68 -5 5 C-4.34 5 -3.68 5 -3 5 C-3 4.34 -3 3.68 -3 3 C-2.34 3 -1.68 3 -1 3 C-0.67 2.01 -0.34 1.02 0 0 Z " fill="#D41A39" transform="translate(743,522)"/>
<path d="M0 0 C0.66 0.33 1.32 0.66 2 1 C-2.9668638 6.69637192 -7.97167385 12.35782624 -13 18 C-13.66 17.67 -14.32 17.34 -15 17 C-11.04714168 11.63206518 -7.22590177 7.13210837 -2 3 C-1.34 2.01 -0.68 1.02 0 0 Z " fill="#F3DFDF" transform="translate(136,307)"/>
<path d="M0 0 C0.66 0.33 1.32 0.66 2 1 C-4.1971831 6.35211268 -4.1971831 6.35211268 -8 8 C-8.70125 8.391875 -9.4025 8.78375 -10.125 9.1875 C-10.74375 9.455625 -11.3625 9.72375 -12 10 C-12.66 9.67 -13.32 9.34 -14 9 C-12.41906946 7.87162591 -10.83515284 6.74743482 -9.25 5.625 C-8.36828125 4.99851563 -7.4865625 4.37203125 -6.578125 3.7265625 C-4.4108392 2.27513777 -2.42356585 0.9588891 0 0 Z " fill="#D72849" transform="translate(279,130)"/>
<path d="M0 0 C3.2531655 3.74114033 5.44374911 8.31315138 7 13 C6.67 13.66 6.34 14.32 6 15 C5.01 15.33 4.02 15.66 3 16 C3 13.03 3 10.06 3 7 C2.34 7 1.68 7 1 7 C0.67 4.69 0.34 2.38 0 0 Z " fill="#D03350" transform="translate(771,329)"/>
<path d="M0 0 C7.59 0 15.18 0 23 0 C23 0.33 23 0.66 23 1 C21.92621094 1.06058594 20.85242188 1.12117187 19.74609375 1.18359375 C18.30988685 1.26807651 16.87368942 1.35272054 15.4375 1.4375 C14.73302734 1.47681641 14.02855469 1.51613281 13.30273438 1.55664062 C8.8201459 1.82518279 4.43706503 2.30616197 0 3 C0 2.01 0 1.02 0 0 Z " fill="#DA2547" transform="translate(528,230)"/>
<path d="M0 0 C0.66 0 1.32 0 2 0 C0.375 5.75 0.375 5.75 -3 8 C-3.66 7.67 -4.32 7.34 -5 7 C-5 7.66 -5 8.32 -5 9 C-5.66 8.67 -6.32 8.34 -7 8 C-5.88200014 6.66079162 -4.75538103 5.32877444 -3.625 4 C-2.68527344 2.88625 -2.68527344 2.88625 -1.7265625 1.75 C-1.15679687 1.1725 -0.58703125 0.595 0 0 Z " fill="#DB203C" transform="translate(81,258)"/>
<path d="M0 0 C0.66 0 1.32 0 2 0 C1.75 1.875 1.75 1.875 1 4 C-0.32467746 4.6837045 -1.65863633 5.34964186 -3 6 C-4.13350534 8.01669827 -4.13350534 8.01669827 -5 10 C-5.99 10.495 -5.99 10.495 -7 11 C-5.25731793 7.03935893 -2.85325271 3.25563451 0 0 Z " fill="#EFE3E2" transform="translate(284,216)"/>
<path d="M0 0 C0.99 0.33 1.98 0.66 3 1 C2.34 1 1.68 1 1 1 C1 1.66 1 2.32 1 3 C2.98 3 4.96 3 7 3 C7 3.33 7 3.66 7 4 C2.05 4.33 -2.9 4.66 -8 5 C-5.07735566 3.53867783 -3.07536854 2.65900754 0 2 C0 1.34 0 0.68 0 0 Z " fill="#D8485D" transform="translate(364,171)"/>
<path d="M0 0 C0.33 0.99 0.66 1.98 1 3 C-0.63167477 6.16736868 -1.83357085 6.93473367 -5.1875 8.25 C-6.115625 8.4975 -7.04375 8.745 -8 9 C-7.04270084 7.87411986 -6.08412105 6.7493285 -5.125 5.625 C-4.59132813 4.99851562 -4.05765625 4.37203125 -3.5078125 3.7265625 C-2.38567993 2.44163349 -1.20628025 1.20628025 0 0 Z " fill="#E11F47" transform="translate(699,459)"/>
<path d="M0 0 C2 3 2 3 2 6 C2.33 6.66 2.66 7.32 3 8 C1.35 7.67 -0.3 7.34 -2 7 C-2.125 4.625 -2.125 4.625 -2 2 C-1.34 1.34 -0.68 0.68 0 0 Z " fill="#DC193C" transform="translate(410,405)"/>
<path d="M0 0 C-0.33 0.99 -0.66 1.98 -1 3 C-1.66 3 -2.32 3 -3 3 C-3.12375 3.639375 -3.2475 4.27875 -3.375 4.9375 C-3.58125 5.618125 -3.7875 6.29875 -4 7 C-4.99 7.495 -4.99 7.495 -6 8 C-6.99 7.34 -7.98 6.68 -9 6 C-7.8803014 4.99406757 -6.7540588 3.9954151 -5.625 3 C-4.68527344 2.1646875 -4.68527344 2.1646875 -3.7265625 1.3125 C-2 0 -2 0 0 0 Z " fill="#DC1E46" transform="translate(92,250)"/>
<path d="M0 0 C0.66 0 1.32 0 2 0 C0.515 6.435 0.515 6.435 -1 13 C-1.33 13 -1.66 13 -2 13 C-2.33 10.69 -2.66 8.38 -3 6 C-2.01 5.67 -1.02 5.34 0 5 C0 3.35 0 1.7 0 0 Z " fill="#D52745" transform="translate(105,352)"/>
<path d="M0 0 C4.54805635 -0.17835515 7.8794254 0.00214565 12 2 C12 2.66 12 3.32 12 4 C6.06 2.515 6.06 2.515 0 1 C0 0.67 0 0.34 0 0 Z " fill="#D41636" transform="translate(411,177)"/>
<path d="M0 0 C3.3 0 6.6 0 10 0 C10.33 0.99 10.66 1.98 11 3 C11.99 3.33 12.98 3.66 14 4 C9.23649415 3.28547412 4.65798604 2.20465156 0 1 C0 0.67 0 0.34 0 0 Z " fill="#F2D9D9" transform="translate(574,168)"/>
<path d="M0 0 C0 0.99 0 1.98 0 3 C-2.5 5.1875 -2.5 5.1875 -5 7 C-5.66 6.34 -6.32 5.68 -7 5 C-4.69 3.35 -2.38 1.7 0 0 Z " fill="#F1DEDC" transform="translate(721,545)"/>
<path d="M0 0 C2.0625 2.1875 2.0625 2.1875 4 5 C3.75 7.8125 3.75 7.8125 3 10 C0.70366176 6.55549263 0.45983515 4.06187717 0 0 Z " fill="#E01941" transform="translate(38,438)"/>
<path d="M0 0 C0.66 0 1.32 0 2 0 C1.46930939 3.82097239 0.50298434 6.06171403 -2 9 C-2.66 7.68 -3.32 6.36 -4 5 C-2.68 4.67 -1.36 4.34 0 4 C0 2.68 0 1.36 0 0 Z " fill="#D7183A" transform="translate(267,236)"/>
<path d="M0 0 C0 3.10551666 -0.5393715 4.35261084 -2 7 C-3.32 6.34 -4.64 5.68 -6 5 C-4.02 3.35 -2.04 1.7 0 0 Z " fill="#DD193B" transform="translate(690,468)"/>
<path d="M0 0 C0.99 0.33 1.98 0.66 3 1 C0.59563974 4.60654039 -0.94679607 4.85452932 -5 6 C-3.35 4.02 -1.7 2.04 0 0 Z " fill="#DF2B47" transform="translate(435,380)"/>
<path d="M0 0 C2.64 0.33 5.28 0.66 8 1 C7.34 2.32 6.68 3.64 6 5 C3.98079663 3.69593116 1.98075027 2.36176581 0 1 C0 0.67 0 0.34 0 0 Z " fill="#E21C3D" transform="translate(685,328)"/>
<path d="M0 0 C0.33 0 0.66 0 1 0 C1 1.98 1 3.96 1 6 C-0.98 6.99 -0.98 6.99 -3 8 C-2.37240135 5.07120629 -1.41377341 2.63904371 0 0 Z " fill="#DE3757" transform="translate(42,316)"/>
<path d="M0 0 C0.66 0.33 1.32 0.66 2 1 C-0.3125 3.0625 -0.3125 3.0625 -3 5 C-3.99 4.67 -4.98 4.34 -6 4 C-3.94766315 1.7522025 -2.99332739 0.9977758 0 0 Z " fill="#F3E1E0" transform="translate(325,186)"/>
<path d="M0 0 C2.31 0 4.62 0 7 0 C7.33 1.32 7.66 2.64 8 4 C4.64404172 3.40072174 2.62198774 2.15377564 0 0 Z " fill="#D81B3D" transform="translate(431,184)"/>
<path d="M0 0 C2.31 0.33 4.62 0.66 7 1 C7.33 2.32 7.66 3.64 8 5 C4.62496331 3.8141763 2.35277269 2.72426311 0 0 Z " fill="#DD2144" transform="translate(526,547)"/>
<path d="M0 0 C2.29633824 3.44450737 2.54016485 5.93812283 3 10 C2.01 9.34 1.02 8.68 0 8 C-0.40843923 5.28796348 -0.13336867 2.7562858 0 0 Z " fill="#CC3752" transform="translate(784,362)"/>
<path d="M0 0 C1 2 1 2 0.375 4.0625 C-1 6 -1 6 -3.625 6.75 C-4.800625 6.87375 -4.800625 6.87375 -6 7 C-4.02 4.69 -2.04 2.38 0 0 Z " fill="#DE163B" transform="translate(239,161)"/>
<path d="M0 0 C0.66 0.33 1.32 0.66 2 1 C-0.97 3.475 -0.97 3.475 -4 6 C-4 4.68 -4 3.36 -4 2 C-2.125 0.9375 -2.125 0.9375 0 0 Z " fill="#E11D45" transform="translate(279,130)"/>
<path d="M0 0 C-1.65 0.33 -3.3 0.66 -5 1 C-5 1.99 -5 2.98 -5 4 C-5.99 4 -6.98 4 -8 4 C-8 3.01 -8 2.02 -8 1 C-4.93251126 -0.86240388 -3.40254489 -1.2151946 0 0 Z " fill="#DC2B4D" transform="translate(323,113)"/>
</svg>
